<svg width="1050" height="91" viewBox="0 0 1050 91" fill="none" xmlns="http://www.w3.org/2000/svg">
<path d="M19.57 10.92V21.218H8.512V10.92H3.268V36H8.512V25.436H19.57V36H24.814V10.92H19.57ZM39.3451 16.62C33.2271 16.62 29.6171 20.306 29.6171 26.5C29.6171 32.694 33.2271 36.38 39.3451 36.38C45.4631 36.38 49.0731 32.694 49.0731 26.5C49.0731 20.306 45.4631 16.62 39.3451 16.62ZM39.3451 20.496C42.2711 20.496 43.8671 22.472 43.8671 26.5C43.8671 30.528 42.2711 32.504 39.3451 32.504C36.4191 32.504 34.8231 30.528 34.8231 26.5C34.8231 22.472 36.4191 20.496 39.3451 20.496ZM77.8323 17L74.0323 31.82L69.7763 17H64.6463L60.3903 31.82L56.5903 17H51.0803L57.1223 36H63.1263L67.1163 22.586L71.2583 36H77.3003L83.3423 17H77.8323ZM103.401 10.92H98.1567V36H103.401V10.92ZM121.624 31.364C120.826 32.048 119.952 32.428 118.698 32.428C117.064 32.428 116.076 31.63 116.076 29.806V20.876H122.232V17H116.076V11.186L110.87 12.63V17H107.412V20.876H110.87V30.642C110.87 34.822 113.454 36.38 117.216 36.38C119.23 36.38 121.206 35.81 122.422 34.822L121.624 31.364ZM151.334 22.32L152.512 16.392H152.588L153.766 22.32L157.262 36H163.152L170.448 10.92H165.052L160.188 31.858L155.096 10.92H150.08L145.064 31.858L140.2 10.92H134.538L141.834 36H147.876L151.334 22.32ZM180.955 16.62C174.837 16.62 171.227 20.306 171.227 26.5C171.227 32.694 174.837 36.38 180.955 36.38C187.073 36.38 190.683 32.694 190.683 26.5C190.683 20.306 187.073 16.62 180.955 16.62ZM180.955 20.496C183.881 20.496 185.477 22.472 185.477 26.5C185.477 30.528 183.881 32.504 180.955 32.504C178.029 32.504 176.433 30.528 176.433 26.5C176.433 22.472 178.029 20.496 180.955 20.496ZM205.902 16.62C202.938 16.62 201 18.102 200.012 20.724L199.67 17H195.148V36H200.354V26.158C200.354 22.7 202.634 21.028 204.914 21.028C205.902 21.028 206.776 21.256 207.308 21.598L207.954 17.038C207.498 16.772 206.738 16.62 205.902 16.62ZM225.087 36H230.977L223.377 24.448L230.521 17H224.631L216.385 25.702V8.678H211.179V36H216.385V31.288L219.843 27.602L225.087 36ZM241.151 36.38C246.813 36.38 249.815 33.91 249.815 30.49C249.815 27.336 247.763 25.664 242.215 24.562C239.023 23.916 238.073 23.27 238.073 22.244C238.073 21.256 239.365 20.42 241.493 20.42C244.039 20.42 245.559 21.408 246.661 23.384L249.891 20.648C248.143 17.912 245.787 16.62 241.417 16.62C235.793 16.62 232.867 19.66 232.867 22.738C232.867 25.892 234.843 27.716 240.771 28.894C243.545 29.464 244.571 29.996 244.571 30.87C244.571 31.896 243.317 32.58 241.075 32.58C238.491 32.58 236.439 31.896 235.375 29.616L232.335 32.732C234.083 35.316 237.237 36.38 241.151 36.38Z" fill="white"/>
<path d="M12.54 68.13V66.48H2.376V81H4.136V74.466H10.692V72.816H4.136V68.13H12.54ZM16.3537 67.888C17.1457 67.888 17.6737 67.36 17.6737 66.568C17.6737 65.776 17.1457 65.248 16.3537 65.248C15.5617 65.248 15.0337 65.776 15.0337 66.568C15.0337 67.36 15.5617 67.888 16.3537 67.888ZM17.2337 70H15.4737V81H17.2337V70ZM26.6635 69.78C25.1455 69.78 23.7375 70.33 22.9675 71.716L22.8575 70H21.3175V81H23.0775V75.148C23.0775 72.332 24.8815 71.32 26.4875 71.32C28.0055 71.32 29.1935 72.134 29.1935 74.576V81H30.9535V73.96C30.9535 71.122 29.0175 69.78 26.6635 69.78ZM42.9466 64.94V71.716C42.2646 70.572 40.9446 69.78 39.2946 69.78C36.2366 69.78 34.2786 71.914 34.2786 75.5C34.2786 79.086 36.2366 81.22 39.2946 81.22C41.0326 81.22 42.4186 80.34 43.0566 79.086L43.1666 81H44.7066V64.94H42.9466ZM39.4926 79.68C37.3366 79.68 36.0386 78.052 36.0386 75.5C36.0386 72.948 37.3366 71.32 39.4926 71.32C41.5826 71.32 42.9466 72.882 42.9466 75.368V75.632C42.9466 78.118 41.5826 79.68 39.4926 79.68ZM62.476 66.26C58.34 66.26 55.744 69.142 55.744 73.74C55.744 78.338 58.34 81.22 62.476 81.22C66.612 81.22 69.208 78.338 69.208 73.74C69.208 69.142 66.612 66.26 62.476 66.26ZM62.476 67.91C65.49 67.91 67.36 70.088 67.36 73.74C67.36 77.392 65.49 79.57 62.476 79.57C59.462 79.57 57.592 77.392 57.592 73.74C57.592 70.088 59.462 67.91 62.476 67.91ZM80.5171 70V75.984C80.5171 78.58 78.8671 79.68 76.9971 79.68C75.4131 79.68 74.4011 78.998 74.4011 76.732V70H72.6411V77.194C72.6411 80.098 74.5111 81.22 76.6891 81.22C78.4491 81.22 79.8571 80.648 80.6271 79.328L80.7371 81H82.2771V70H80.5171ZM92.4882 78.756C91.9822 79.262 91.4102 79.57 90.6182 79.57C89.6502 79.57 88.9682 79.042 88.9682 77.964V71.518H93.0382V70H88.9682V66.876L87.2082 67.36V70H85.0082V71.518H87.2082V78.272C87.2302 80.406 88.6382 81.22 90.2662 81.22C91.4762 81.22 92.4222 80.846 93.1042 80.23L92.4882 78.756ZM113.053 66.48V72.816H105.177V66.48H103.417V81H105.177V74.466H113.053V81H114.813V66.48H113.053ZM123.692 69.78C120.37 69.78 118.368 71.936 118.368 75.5C118.368 79.064 120.37 81.22 123.692 81.22C127.014 81.22 129.016 79.064 129.016 75.5C129.016 71.936 127.014 69.78 123.692 69.78ZM123.692 71.298C125.914 71.298 127.256 72.882 127.256 75.5C127.256 78.118 125.914 79.702 123.692 79.702C121.47 79.702 120.128 78.118 120.128 75.5C120.128 72.882 121.47 71.298 123.692 71.298ZM146.105 70L143.333 78.954L140.341 70H138.581L135.589 78.954L132.817 70H130.859L134.687 81H136.447L139.373 72.244L142.475 81H144.235L148.063 70H146.105ZM167.873 66.48H155.993V68.13H161.053V81H162.813V68.13H167.873V66.48ZM172.827 69.78C169.505 69.78 167.503 71.936 167.503 75.5C167.503 79.064 169.505 81.22 172.827 81.22C176.149 81.22 178.151 79.064 178.151 75.5C178.151 71.936 176.149 69.78 172.827 69.78ZM172.827 71.298C175.049 71.298 176.391 72.882 176.391 75.5C176.391 78.118 175.049 79.702 172.827 79.702C170.605 79.702 169.263 78.118 169.263 75.5C169.263 72.882 170.605 71.298 172.827 71.298ZM194.985 73.674V75.324H199.605V75.83C199.605 78.338 197.735 79.57 195.315 79.57C192.081 79.57 190.365 77.392 190.365 73.74C190.365 70.088 192.345 67.91 195.293 67.91C197.317 67.91 198.857 68.79 199.495 70.462L201.101 69.582C199.979 67.338 198.175 66.26 195.293 66.26C191.223 66.26 188.517 69.142 188.517 73.74C188.517 78.338 191.113 81.22 195.249 81.22C197.471 81.22 198.989 80.406 199.825 79.042L199.891 81H201.211V73.674H194.985ZM214.425 74.928C214.425 72.09 212.687 69.78 209.497 69.78C206.175 69.78 204.305 71.936 204.305 75.5C204.305 79.064 206.307 81.22 209.629 81.22C212.005 81.22 213.369 80.318 214.205 78.822L212.731 78.052C212.335 79.108 211.235 79.68 209.629 79.68C207.605 79.68 206.263 78.382 206.043 76.16H214.337C214.381 75.852 214.425 75.434 214.425 74.928ZM209.497 71.32C211.367 71.32 212.489 72.574 212.731 74.598H206.065C206.329 72.53 207.539 71.32 209.497 71.32ZM223.564 78.756C223.058 79.262 222.486 79.57 221.694 79.57C220.726 79.57 220.044 79.042 220.044 77.964V71.518H224.114V70H220.044V66.876L218.284 67.36V70H216.084V71.518H218.284V78.272C218.306 80.406 219.714 81.22 221.342 81.22C222.552 81.22 223.498 80.846 224.18 80.23L223.564 78.756ZM239.157 66.26C235.791 66.26 233.745 68.24 233.745 70.572C233.745 72.794 235.153 73.982 239.069 74.664C242.127 75.192 243.073 75.918 243.073 77.172C243.073 78.734 241.577 79.57 239.333 79.57C236.957 79.57 235.461 78.514 234.691 76.842L233.173 78.074C234.185 79.878 236.209 81.22 239.289 81.22C242.677 81.22 244.899 79.57 244.899 77.084C244.899 74.84 243.513 73.608 239.619 72.948C236.561 72.42 235.593 71.738 235.593 70.374C235.593 68.988 236.869 67.91 239.179 67.91C241.313 67.91 242.369 68.658 243.249 70.572L244.767 69.34C243.645 67.316 241.819 66.26 239.157 66.26ZM254.373 78.756C253.867 79.262 253.295 79.57 252.503 79.57C251.535 79.57 250.853 79.042 250.853 77.964V71.518H254.923V70H250.853V66.876L249.093 67.36V70H246.893V71.518H249.093V78.272C249.115 80.406 250.523 81.22 252.151 81.22C253.361 81.22 254.307 80.846 254.989 80.23L254.373 78.756ZM266.494 79.724C265.878 79.724 265.658 79.46 265.658 78.932V73.52C265.658 70.968 263.832 69.78 261.324 69.78C259.19 69.78 257.452 70.836 256.88 72.464L258.178 73.41C258.772 72.024 259.872 71.32 261.324 71.32C262.974 71.32 263.898 72.288 263.898 73.74V74.356L260.972 74.84C258.134 75.324 256.682 76.622 256.682 78.272C256.682 80.252 258.354 81.22 260.422 81.22C261.83 81.22 263.26 80.626 263.964 79.592C264.162 80.824 264.866 81.22 265.944 81.22C266.494 81.22 266.956 81.11 267.264 81L267.374 79.614C267.11 79.68 266.78 79.724 266.494 79.724ZM260.51 79.68C259.256 79.68 258.508 79.196 258.508 78.272C258.508 77.238 259.498 76.6 261.434 76.248L263.898 75.786V77.304C263.898 78.756 262.27 79.68 260.51 79.68ZM275.127 69.78C273.411 69.78 272.223 70.462 271.607 71.804L271.365 70H269.935V81H271.695V75.06C271.695 72.596 273.279 71.43 274.599 71.43C275.171 71.43 275.655 71.54 275.985 71.716L276.337 70C276.007 69.824 275.501 69.78 275.127 69.78ZM284.365 78.756C283.859 79.262 283.287 79.57 282.495 79.57C281.527 79.57 280.845 79.042 280.845 77.964V71.518H284.915V70H280.845V66.876L279.085 67.36V70H276.885V71.518H279.085V78.272C279.107 80.406 280.515 81.22 282.143 81.22C283.353 81.22 284.299 80.846 284.981 80.23L284.365 78.756ZM296.904 74.928C296.904 72.09 295.166 69.78 291.976 69.78C288.654 69.78 286.784 71.936 286.784 75.5C286.784 79.064 288.786 81.22 292.108 81.22C294.484 81.22 295.848 80.318 296.684 78.822L295.21 78.052C294.814 79.108 293.714 79.68 292.108 79.68C290.084 79.68 288.742 78.382 288.522 76.16H296.816C296.86 75.852 296.904 75.434 296.904 74.928ZM291.976 71.32C293.846 71.32 294.968 72.574 295.21 74.598H288.544C288.808 72.53 290.018 71.32 291.976 71.32ZM308.257 64.94V71.716C307.575 70.572 306.255 69.78 304.605 69.78C301.547 69.78 299.589 71.914 299.589 75.5C299.589 79.086 301.547 81.22 304.605 81.22C306.343 81.22 307.729 80.34 308.367 79.086L308.477 81H310.017V64.94H308.257ZM304.803 79.68C302.647 79.68 301.349 78.052 301.349 75.5C301.349 72.948 302.647 71.32 304.803 71.32C306.893 71.32 308.257 72.882 308.257 75.368V75.632C308.257 78.118 306.893 79.68 304.803 79.68Z" fill="white"/>
</svg>
