<svg width="346" height="37" viewBox="0 0 346 37" fill="none" xmlns="http://www.w3.org/2000/svg">
<path d="M0.268 28H11.63C17.596 28 20.788 25.454 20.788 21.122C20.788 18.196 18.85 15.84 15.354 15.346V15.308C18.508 14.776 20.142 12.458 20.142 9.76C20.142 5.428 17.33 2.92 11.25 2.92H0.268V28ZM5.36 13.446V6.986H10.528C13.34 6.986 14.708 8.05 14.708 10.216C14.708 12.382 13.34 13.446 10.528 13.446H5.36ZM5.36 24.048V17.474H11.174C13.986 17.474 15.354 18.652 15.354 20.742C15.354 22.87 13.986 24.048 11.174 24.048H5.36ZM36.0213 8.62C33.0573 8.62 31.1193 10.102 30.1313 12.724L29.7893 9H25.2673V28H30.4733V18.158C30.4733 14.7 32.7533 13.028 35.0333 13.028C36.0213 13.028 36.8953 13.256 37.4273 13.598L38.0733 9.038C37.6173 8.772 36.8573 8.62 36.0213 8.62ZM49.6674 8.62C43.5494 8.62 39.9394 12.306 39.9394 18.5C39.9394 24.694 43.5494 28.38 49.6674 28.38C55.7854 28.38 59.3954 24.694 59.3954 18.5C59.3954 12.306 55.7854 8.62 49.6674 8.62ZM49.6674 12.496C52.5934 12.496 54.1894 14.472 54.1894 18.5C54.1894 22.528 52.5934 24.504 49.6674 24.504C46.7414 24.504 45.1454 22.528 45.1454 18.5C45.1454 14.472 46.7414 12.496 49.6674 12.496ZM88.1546 9L84.3546 23.82L80.0986 9H74.9686L70.7126 23.82L66.9126 9H61.4026L67.4446 28H73.4486L77.4386 14.586L81.5806 28H87.6226L93.6646 9H88.1546ZM104.26 28.38C109.922 28.38 112.924 25.91 112.924 22.49C112.924 19.336 110.872 17.664 105.324 16.562C102.132 15.916 101.182 15.27 101.182 14.244C101.182 13.256 102.474 12.42 104.602 12.42C107.148 12.42 108.668 13.408 109.77 15.384L113 12.648C111.252 9.912 108.896 8.62 104.526 8.62C98.9023 8.62 95.9763 11.66 95.9763 14.738C95.9763 17.892 97.9523 19.716 103.88 20.894C106.654 21.464 107.68 21.996 107.68 22.87C107.68 23.896 106.426 24.58 104.184 24.58C101.6 24.58 99.5483 23.896 98.4843 21.616L95.4443 24.732C97.1923 27.316 100.346 28.38 104.26 28.38ZM134.748 18.424C134.748 12.192 131.518 8.62 125.59 8.62C119.472 8.62 116.014 12.268 116.014 18.5C116.014 24.732 119.586 28.38 125.894 28.38C130.188 28.38 133.114 26.746 134.33 23.706L130.074 22.148C129.542 23.668 128.098 24.504 125.894 24.504C123.348 24.504 121.676 23.212 121.144 20.476H134.596C134.672 19.982 134.748 18.956 134.748 18.424ZM125.552 12.458C127.946 12.458 129.542 13.978 129.96 16.828H121.106C121.524 13.94 123.044 12.458 125.552 12.458ZM172.736 21.084L167.91 19.64C167.112 22.642 165.136 24.086 162.134 24.086C157.916 24.086 155.446 21.008 155.446 15.46C155.446 9.874 158.068 6.834 162.248 6.834C165.136 6.834 166.808 8.012 167.644 11.052L172.394 9.038C170.988 4.668 167.15 2.54 162.02 2.54C154.686 2.54 150.012 7.404 150.012 15.46C150.012 23.516 154.648 28.38 162.096 28.38C167.188 28.38 171.216 25.986 172.736 21.084ZM194.04 24.846C193.052 24.846 192.634 24.39 192.634 23.402V15.612C192.634 10.9 189.29 8.62 184.008 8.62C179.372 8.62 176.522 10.672 175.724 13.902L179.866 15.65C180.436 13.256 182.032 12.42 184.236 12.42C186.288 12.42 187.466 13.712 187.466 15.726V16.638L182.906 17.512C177.814 18.462 175.496 20.552 175.496 23.516C175.496 26.708 177.776 28.38 181.386 28.38C184.578 28.38 186.972 27.392 188.112 25.53C188.644 27.582 190.202 28.38 192.482 28.38C193.432 28.38 194.268 28.19 194.952 27.848L195.332 24.694C194.952 24.808 194.496 24.846 194.04 24.846ZM183.02 24.846C181.652 24.846 180.854 24.2 180.854 22.984C180.854 21.73 181.728 21.122 183.4 20.742L187.466 19.83V21.806C187.466 23.82 184.996 24.846 183.02 24.846ZM209.988 23.364C209.19 24.048 208.316 24.428 207.062 24.428C205.428 24.428 204.44 23.63 204.44 21.806V12.876H210.596V9H204.44V3.186L199.234 4.63V9H195.776V12.876H199.234V22.642C199.234 26.822 201.818 28.38 205.58 28.38C207.594 28.38 209.57 27.81 210.786 26.822L209.988 23.364ZM231.789 18.424C231.789 12.192 228.559 8.62 222.631 8.62C216.513 8.62 213.055 12.268 213.055 18.5C213.055 24.732 216.627 28.38 222.935 28.38C227.229 28.38 230.155 26.746 231.371 23.706L227.115 22.148C226.583 23.668 225.139 24.504 222.935 24.504C220.389 24.504 218.717 23.212 218.185 20.476H231.637C231.713 19.982 231.789 18.956 231.789 18.424ZM222.593 12.458C224.987 12.458 226.583 13.978 227.001 16.828H218.147C218.565 13.94 220.085 12.458 222.593 12.458ZM247.712 24.428H241.29C239.96 24.428 239.124 23.896 239.124 22.87C239.124 21.996 239.542 21.426 240.644 21.16C241.67 21.388 242.81 21.502 244.064 21.502C249.46 21.502 252.766 19.032 252.766 15.08C252.766 12.838 251.74 11.09 249.878 9.988C250.448 8.734 251.93 7.974 254.324 8.202L253.64 4.478C250.22 4.326 248.472 6.302 247.864 9.114C246.762 8.772 245.47 8.62 244.064 8.62C238.668 8.62 235.324 11.09 235.324 15.08C235.324 17.36 236.35 19.146 238.326 20.248C236.502 20.894 235.286 22.186 235.286 24.086C235.286 25.948 236.54 27.202 238.098 27.886C235.78 28.456 234.64 29.824 234.64 31.496C234.64 34.27 237.452 36.17 243.988 36.17C249.954 36.17 254.21 33.852 254.21 29.71C254.21 26.29 251.816 24.428 247.712 24.428ZM244.064 11.888C246.078 11.888 247.522 13.142 247.522 15.042C247.522 16.98 246.078 18.234 244.064 18.234C242.05 18.234 240.568 16.98 240.568 15.042C240.568 13.142 242.05 11.888 244.064 11.888ZM244.406 32.598C240.53 32.598 238.782 31.724 238.782 30.356C238.782 29.254 239.732 28.646 241.936 28.646H247.104C249.27 28.646 249.954 29.254 249.954 30.242C249.954 31.534 248.092 32.598 244.406 32.598ZM266.164 8.62C260.046 8.62 256.436 12.306 256.436 18.5C256.436 24.694 260.046 28.38 266.164 28.38C272.282 28.38 275.892 24.694 275.892 18.5C275.892 12.306 272.282 8.62 266.164 8.62ZM266.164 12.496C269.09 12.496 270.686 14.472 270.686 18.5C270.686 22.528 269.09 24.504 266.164 24.504C263.238 24.504 261.642 22.528 261.642 18.5C261.642 14.472 263.238 12.496 266.164 12.496ZM291.111 8.62C288.147 8.62 286.209 10.102 285.221 12.724L284.879 9H280.357V28H285.563V18.158C285.563 14.7 287.843 13.028 290.123 13.028C291.111 13.028 291.985 13.256 292.517 13.598L293.163 9.038C292.707 8.772 291.947 8.62 291.111 8.62ZM299.01 6.264C301.176 6.264 302.24 5.352 302.24 3.49C302.24 1.628 301.176 0.677998 299.01 0.677998C296.844 0.677998 295.78 1.628 295.78 3.49C295.78 5.352 296.844 6.264 299.01 6.264ZM301.594 9H296.388V28H301.594V9ZM324.859 18.424C324.859 12.192 321.629 8.62 315.701 8.62C309.583 8.62 306.125 12.268 306.125 18.5C306.125 24.732 309.697 28.38 316.005 28.38C320.299 28.38 323.225 26.746 324.441 23.706L320.185 22.148C319.653 23.668 318.209 24.504 316.005 24.504C313.459 24.504 311.787 23.212 311.255 20.476H324.707C324.783 19.982 324.859 18.956 324.859 18.424ZM315.663 12.458C318.057 12.458 319.653 13.978 320.071 16.828H311.217C311.635 13.94 313.155 12.458 315.663 12.458ZM336.602 28.38C342.264 28.38 345.266 25.91 345.266 22.49C345.266 19.336 343.214 17.664 337.666 16.562C334.474 15.916 333.524 15.27 333.524 14.244C333.524 13.256 334.816 12.42 336.944 12.42C339.49 12.42 341.01 13.408 342.112 15.384L345.342 12.648C343.594 9.912 341.238 8.62 336.868 8.62C331.244 8.62 328.318 11.66 328.318 14.738C328.318 17.892 330.294 19.716 336.222 20.894C338.996 21.464 340.022 21.996 340.022 22.87C340.022 23.896 338.768 24.58 336.526 24.58C333.942 24.58 331.89 23.896 330.826 21.616L327.786 24.732C329.534 27.316 332.688 28.38 336.602 28.38Z" fill="white"/>
</svg>
