<svg width="703" height="91" viewBox="0 0 703 91" fill="none" xmlns="http://www.w3.org/2000/svg">
<path d="M23.104 10.92H1.026V15.138H9.462V36H14.706V15.138H23.104V10.92ZM31.849 16.62C25.731 16.62 22.121 20.306 22.121 26.5C22.121 32.694 25.731 36.38 31.849 36.38C37.967 36.38 41.577 32.694 41.577 26.5C41.577 20.306 37.967 16.62 31.849 16.62ZM31.849 20.496C34.775 20.496 36.371 22.472 36.371 26.5C36.371 30.528 34.775 32.504 31.849 32.504C28.923 32.504 27.327 30.528 27.327 26.5C27.327 22.472 28.923 20.496 31.849 20.496ZM57.2146 16.62C54.1746 16.62 51.8946 18.254 50.8306 20.686L50.6406 17H46.0426V43.98H51.2486V32.846C52.3506 34.974 54.4026 36.38 57.2146 36.38C62.2306 36.38 65.3466 32.694 65.3466 26.462C65.3466 20.268 62.2686 16.62 57.2146 16.62ZM55.6566 32.39C52.9206 32.39 51.2486 30.3 51.2486 26.69V26.31C51.2486 22.624 52.9586 20.61 55.6566 20.61C58.4306 20.61 60.1026 22.624 60.1026 26.5C60.1026 30.376 58.4306 32.39 55.6566 32.39ZM103.558 29.084L98.7323 27.64C97.9343 30.642 95.9583 32.086 92.9563 32.086C88.7383 32.086 86.2683 29.008 86.2683 23.46C86.2683 17.874 88.8903 14.834 93.0703 14.834C95.9583 14.834 97.6303 16.012 98.4663 19.052L103.216 17.038C101.81 12.668 97.9723 10.54 92.8423 10.54C85.5083 10.54 80.8343 15.404 80.8343 23.46C80.8343 31.516 85.4703 36.38 92.9183 36.38C98.0103 36.38 102.038 33.986 103.558 29.084ZM118.25 16.62C115.286 16.62 113.348 18.102 112.36 20.724L112.018 17H107.496V36H112.702V26.158C112.702 22.7 114.982 21.028 117.262 21.028C118.25 21.028 119.124 21.256 119.656 21.598L120.302 17.038C119.846 16.772 119.086 16.62 118.25 16.62ZM140.902 26.424C140.902 20.192 137.672 16.62 131.744 16.62C125.626 16.62 122.168 20.268 122.168 26.5C122.168 32.732 125.74 36.38 132.048 36.38C136.342 36.38 139.268 34.746 140.484 31.706L136.228 30.148C135.696 31.668 134.252 32.504 132.048 32.504C129.502 32.504 127.83 31.212 127.298 28.476H140.75C140.826 27.982 140.902 26.956 140.902 26.424ZM131.706 20.458C134.1 20.458 135.696 21.978 136.114 24.828H127.26C127.678 21.94 129.198 20.458 131.706 20.458ZM162.639 32.846C161.651 32.846 161.233 32.39 161.233 31.402V23.612C161.233 18.9 157.889 16.62 152.607 16.62C147.971 16.62 145.121 18.672 144.323 21.902L148.465 23.65C149.035 21.256 150.631 20.42 152.835 20.42C154.887 20.42 156.065 21.712 156.065 23.726V24.638L151.505 25.512C146.413 26.462 144.095 28.552 144.095 31.516C144.095 34.708 146.375 36.38 149.985 36.38C153.177 36.38 155.571 35.392 156.711 33.53C157.243 35.582 158.801 36.38 161.081 36.38C162.031 36.38 162.867 36.19 163.551 35.848L163.931 32.694C163.551 32.808 163.095 32.846 162.639 32.846ZM151.619 32.846C150.251 32.846 149.453 32.2 149.453 30.984C149.453 29.73 150.327 29.122 151.999 28.742L156.065 27.83V29.806C156.065 31.82 153.595 32.846 151.619 32.846ZM178.587 31.364C177.789 32.048 176.915 32.428 175.661 32.428C174.027 32.428 173.039 31.63 173.039 29.806V20.876H179.195V17H173.039V11.186L167.833 12.63V17H164.375V20.876H167.833V30.642C167.833 34.822 170.417 36.38 174.179 36.38C176.193 36.38 178.169 35.81 179.385 34.822L178.587 31.364ZM191.382 16.62C185.264 16.62 181.654 20.306 181.654 26.5C181.654 32.694 185.264 36.38 191.382 36.38C197.5 36.38 201.11 32.694 201.11 26.5C201.11 20.306 197.5 16.62 191.382 16.62ZM191.382 20.496C194.308 20.496 195.904 22.472 195.904 26.5C195.904 30.528 194.308 32.504 191.382 32.504C188.456 32.504 186.86 30.528 186.86 26.5C186.86 22.472 188.456 20.496 191.382 20.496ZM216.33 16.62C213.366 16.62 211.428 18.102 210.44 20.724L210.098 17H205.576V36H210.782V26.158C210.782 22.7 213.062 21.028 215.342 21.028C216.33 21.028 217.204 21.256 217.736 21.598L218.382 17.038C217.926 16.772 217.166 16.62 216.33 16.62ZM228.497 36.38C234.159 36.38 237.161 33.91 237.161 30.49C237.161 27.336 235.109 25.664 229.561 24.562C226.369 23.916 225.419 23.27 225.419 22.244C225.419 21.256 226.711 20.42 228.839 20.42C231.385 20.42 232.905 21.408 234.007 23.384L237.237 20.648C235.489 17.912 233.133 16.62 228.763 16.62C223.139 16.62 220.213 19.66 220.213 22.738C220.213 25.892 222.189 27.716 228.117 28.894C230.891 29.464 231.917 29.996 231.917 30.87C231.917 31.896 230.663 32.58 228.421 32.58C225.837 32.58 223.785 31.896 222.721 29.616L219.681 32.732C221.429 35.316 224.583 36.38 228.497 36.38Z" fill="white"/>
<path d="M14.08 77.282L12.32 76.622C11.682 78.58 10.164 79.57 8.228 79.57C5.214 79.57 3.344 77.392 3.344 73.74C3.344 70.066 5.346 67.91 8.316 67.91C10.252 67.91 11.44 68.79 12.078 70.462L13.816 69.648C12.892 67.448 11 66.26 8.184 66.26C4.136 66.26 1.496 69.142 1.496 73.74C1.496 78.338 4.092 81.22 8.228 81.22C10.956 81.22 13.156 79.768 14.08 77.282ZM22.474 69.78C20.978 69.78 19.658 70.33 18.888 71.65V64.94H17.128V81H18.888V75.17C18.888 72.354 20.692 71.32 22.298 71.32C23.816 71.32 25.004 72.134 25.004 74.576V81H26.764V73.96C26.764 71.122 24.828 69.78 22.474 69.78ZM40.1871 74.928C40.1871 72.09 38.4491 69.78 35.2591 69.78C31.9371 69.78 30.0671 71.936 30.0671 75.5C30.0671 79.064 32.0691 81.22 35.3911 81.22C37.7671 81.22 39.1311 80.318 39.9671 78.822L38.4931 78.052C38.0971 79.108 36.9971 79.68 35.3911 79.68C33.3671 79.68 32.0251 78.382 31.8051 76.16H40.0991C40.1431 75.852 40.1871 75.434 40.1871 74.928ZM35.2591 71.32C37.1291 71.32 38.2511 72.574 38.4931 74.598H31.8271C32.0911 72.53 33.3011 71.32 35.2591 71.32ZM48.1743 69.78C44.8523 69.78 42.8503 71.936 42.8503 75.5C42.8503 79.064 44.8523 81.22 48.1743 81.22C50.5063 81.22 52.0903 80.01 52.8383 77.986L51.2103 77.414C50.8803 78.866 49.8463 79.68 48.1303 79.68C45.9303 79.68 44.6103 78.118 44.6103 75.5C44.6103 72.882 45.9303 71.32 48.1303 71.32C49.6483 71.32 50.5943 72.09 51.0563 73.498L52.7283 72.706C51.9143 70.902 50.4403 69.78 48.1743 69.78ZM63.7383 81H65.8723L61.3183 74.29L65.6083 70H63.4083L57.7103 75.698V64.94H55.9503V81H57.7103V77.898L60.0423 75.566L63.7383 81ZM72.688 69.78C69.366 69.78 67.364 71.936 67.364 75.5C67.364 79.064 69.366 81.22 72.688 81.22C76.01 81.22 78.012 79.064 78.012 75.5C78.012 71.936 76.01 69.78 72.688 69.78ZM72.688 71.298C74.91 71.298 76.252 72.882 76.252 75.5C76.252 78.118 74.91 79.702 72.688 79.702C70.466 79.702 69.124 78.118 69.124 75.5C69.124 72.882 70.466 71.298 72.688 71.298ZM89.1968 70V75.984C89.1968 78.58 87.5468 79.68 85.6768 79.68C84.0928 79.68 83.0808 78.998 83.0808 76.732V70H81.3208V77.194C81.3208 80.098 83.1908 81.22 85.3688 81.22C87.1288 81.22 88.5368 80.648 89.3068 79.328L89.4168 81H90.9568V70H89.1968ZM101.168 78.756C100.662 79.262 100.09 79.57 99.2979 79.57C98.3299 79.57 97.6479 79.042 97.6479 77.964V71.518H101.718V70H97.6479V66.876L95.8879 67.36V70H93.6879V71.518H95.8879V78.272C95.9099 80.406 97.3179 81.22 98.9459 81.22C100.156 81.22 101.102 80.846 101.784 80.23L101.168 78.756ZM121.703 66.48H109.823V68.13H114.883V81H116.643V68.13H121.703V66.48ZM126.657 69.78C123.335 69.78 121.333 71.936 121.333 75.5C121.333 79.064 123.335 81.22 126.657 81.22C129.979 81.22 131.981 79.064 131.981 75.5C131.981 71.936 129.979 69.78 126.657 69.78ZM126.657 71.298C128.879 71.298 130.221 72.882 130.221 75.5C130.221 78.118 128.879 79.702 126.657 79.702C124.435 79.702 123.093 78.118 123.093 75.5C123.093 72.882 124.435 71.298 126.657 71.298ZM140.812 69.78C139.074 69.78 137.688 70.66 137.05 71.914L136.94 70H135.4V85.62H137.16V79.284C137.842 80.428 139.162 81.22 140.812 81.22C143.87 81.22 145.828 79.086 145.828 75.5C145.828 71.914 143.87 69.78 140.812 69.78ZM140.614 79.68C138.524 79.68 137.16 78.118 137.16 75.632V75.368C137.16 72.882 138.524 71.32 140.614 71.32C142.77 71.32 144.068 72.948 144.068 75.5C144.068 78.052 142.77 79.68 140.614 79.68ZM166.281 81H168.371L164.279 74.774C166.259 74.246 167.491 72.794 167.491 70.726C167.491 68.108 165.533 66.48 162.585 66.48H157.085V81H158.845V74.972H162.321L166.281 81ZM158.845 68.13H162.563C164.631 68.13 165.643 68.988 165.643 70.726C165.643 72.464 164.631 73.322 162.563 73.322H158.845V68.13ZM180.406 79.724C179.79 79.724 179.57 79.46 179.57 78.932V73.52C179.57 70.968 177.744 69.78 175.236 69.78C173.102 69.78 171.364 70.836 170.792 72.464L172.09 73.41C172.684 72.024 173.784 71.32 175.236 71.32C176.886 71.32 177.81 72.288 177.81 73.74V74.356L174.884 74.84C172.046 75.324 170.594 76.622 170.594 78.272C170.594 80.252 172.266 81.22 174.334 81.22C175.742 81.22 177.172 80.626 177.876 79.592C178.074 80.824 178.778 81.22 179.856 81.22C180.406 81.22 180.868 81.11 181.176 81L181.286 79.614C181.022 79.68 180.692 79.724 180.406 79.724ZM174.422 79.68C173.168 79.68 172.42 79.196 172.42 78.272C172.42 77.238 173.41 76.6 175.346 76.248L177.81 75.786V77.304C177.81 78.756 176.182 79.68 174.422 79.68ZM189.533 78.756C189.027 79.262 188.455 79.57 187.663 79.57C186.695 79.57 186.013 79.042 186.013 77.964V71.518H190.083V70H186.013V66.876L184.253 67.36V70H182.053V71.518H184.253V78.272C184.275 80.406 185.683 81.22 187.311 81.22C188.521 81.22 189.467 80.846 190.149 80.23L189.533 78.756ZM202.072 74.928C202.072 72.09 200.334 69.78 197.144 69.78C193.822 69.78 191.952 71.936 191.952 75.5C191.952 79.064 193.954 81.22 197.276 81.22C199.652 81.22 201.016 80.318 201.852 78.822L200.378 78.052C199.982 79.108 198.882 79.68 197.276 79.68C195.252 79.68 193.91 78.382 193.69 76.16H201.984C202.028 75.852 202.072 75.434 202.072 74.928ZM197.144 71.32C199.014 71.32 200.136 72.574 200.378 74.598H193.712C193.976 72.53 195.186 71.32 197.144 71.32ZM213.425 64.94V71.716C212.743 70.572 211.423 69.78 209.773 69.78C206.715 69.78 204.757 71.914 204.757 75.5C204.757 79.086 206.715 81.22 209.773 81.22C211.511 81.22 212.897 80.34 213.535 79.086L213.645 81H215.185V64.94H213.425ZM209.971 79.68C207.815 79.68 206.517 78.052 206.517 75.5C206.517 72.948 207.815 71.32 209.971 71.32C212.061 71.32 213.425 72.882 213.425 75.368V75.632C213.425 78.118 212.061 79.68 209.971 79.68ZM238.807 77.282L237.047 76.622C236.409 78.58 234.891 79.57 232.955 79.57C229.941 79.57 228.071 77.392 228.071 73.74C228.071 70.066 230.073 67.91 233.043 67.91C234.979 67.91 236.167 68.79 236.805 70.462L238.543 69.648C237.619 67.448 235.727 66.26 232.911 66.26C228.863 66.26 226.223 69.142 226.223 73.74C226.223 78.338 228.819 81.22 232.955 81.22C235.683 81.22 237.883 79.768 238.807 77.282ZM247.047 69.78C245.331 69.78 244.143 70.462 243.527 71.804L243.285 70H241.855V81H243.615V75.06C243.615 72.596 245.199 71.43 246.519 71.43C247.091 71.43 247.575 71.54 247.905 71.716L248.257 70C247.927 69.824 247.421 69.78 247.047 69.78ZM259.929 74.928C259.929 72.09 258.191 69.78 255.001 69.78C251.679 69.78 249.809 71.936 249.809 75.5C249.809 79.064 251.811 81.22 255.133 81.22C257.509 81.22 258.873 80.318 259.709 78.822L258.235 78.052C257.839 79.108 256.739 79.68 255.133 79.68C253.109 79.68 251.767 78.382 251.547 76.16H259.841C259.885 75.852 259.929 75.434 259.929 74.928ZM255.001 71.32C256.871 71.32 257.993 72.574 258.235 74.598H251.569C251.833 72.53 253.043 71.32 255.001 71.32ZM272.295 79.724C271.679 79.724 271.459 79.46 271.459 78.932V73.52C271.459 70.968 269.633 69.78 267.125 69.78C264.991 69.78 263.253 70.836 262.681 72.464L263.979 73.41C264.573 72.024 265.673 71.32 267.125 71.32C268.775 71.32 269.699 72.288 269.699 73.74V74.356L266.773 74.84C263.935 75.324 262.483 76.622 262.483 78.272C262.483 80.252 264.155 81.22 266.223 81.22C267.631 81.22 269.061 80.626 269.765 79.592C269.963 80.824 270.667 81.22 271.745 81.22C272.295 81.22 272.757 81.11 273.065 81L273.175 79.614C272.911 79.68 272.581 79.724 272.295 79.724ZM266.311 79.68C265.057 79.68 264.309 79.196 264.309 78.272C264.309 77.238 265.299 76.6 267.235 76.248L269.699 75.786V77.304C269.699 78.756 268.071 79.68 266.311 79.68ZM281.422 78.756C280.916 79.262 280.344 79.57 279.552 79.57C278.584 79.57 277.902 79.042 277.902 77.964V71.518H281.972V70H277.902V66.876L276.142 67.36V70H273.942V71.518H276.142V78.272C276.164 80.406 277.572 81.22 279.2 81.22C280.41 81.22 281.356 80.846 282.038 80.23L281.422 78.756ZM289.165 69.78C285.843 69.78 283.841 71.936 283.841 75.5C283.841 79.064 285.843 81.22 289.165 81.22C292.487 81.22 294.489 79.064 294.489 75.5C294.489 71.936 292.487 69.78 289.165 69.78ZM289.165 71.298C291.387 71.298 292.729 72.882 292.729 75.5C292.729 78.118 291.387 79.702 289.165 79.702C286.943 79.702 285.601 78.118 285.601 75.5C285.601 72.882 286.943 71.298 289.165 71.298ZM303.099 69.78C301.383 69.78 300.195 70.462 299.579 71.804L299.337 70H297.907V81H299.667V75.06C299.667 72.596 301.251 71.43 302.571 71.43C303.143 71.43 303.627 71.54 303.957 71.716L304.309 70C303.979 69.824 303.473 69.78 303.099 69.78ZM310.155 81.22C312.971 81.22 314.753 79.878 314.753 77.964C314.753 76.16 313.653 75.236 310.573 74.73C308.329 74.356 307.603 73.872 307.603 72.926C307.603 72.112 308.703 71.32 310.177 71.32C311.563 71.32 312.553 71.848 313.037 73.3L314.533 72.42C313.917 70.616 312.531 69.78 310.177 69.78C307.493 69.78 305.843 71.298 305.843 73.08C305.843 74.928 306.987 75.786 310.111 76.358C312.311 76.754 312.993 77.238 312.993 78.052C312.993 78.954 312.135 79.68 310.331 79.68C308.747 79.68 307.383 79.086 306.855 77.744L305.425 78.734C306.261 80.428 308.131 81.22 310.155 81.22ZM331.697 66.26C327.561 66.26 324.965 69.142 324.965 73.74C324.965 78.338 327.561 81.22 331.697 81.22C335.833 81.22 338.429 78.338 338.429 73.74C338.429 69.142 335.833 66.26 331.697 66.26ZM331.697 67.91C334.711 67.91 336.581 70.088 336.581 73.74C336.581 77.392 334.711 79.57 331.697 79.57C328.683 79.57 326.813 77.392 326.813 73.74C326.813 70.088 328.683 67.91 331.697 67.91ZM347.21 69.78C345.692 69.78 344.284 70.33 343.514 71.716L343.404 70H341.864V81H343.624V75.148C343.624 72.332 345.428 71.32 347.034 71.32C348.552 71.32 349.74 72.134 349.74 74.576V81H351.5V73.96C351.5 71.122 349.564 69.78 347.21 69.78ZM372.92 66.48H361.04V68.13H366.1V81H367.86V68.13H372.92V66.48ZM380.576 69.78C379.08 69.78 377.76 70.33 376.99 71.65V64.94H375.23V81H376.99V75.17C376.99 72.354 378.794 71.32 380.4 71.32C381.918 71.32 383.106 72.134 383.106 74.576V81H384.866V73.96C384.866 71.122 382.93 69.78 380.576 69.78ZM398.289 74.928C398.289 72.09 396.551 69.78 393.361 69.78C390.039 69.78 388.169 71.936 388.169 75.5C388.169 79.064 390.171 81.22 393.493 81.22C395.869 81.22 397.233 80.318 398.069 78.822L396.595 78.052C396.199 79.108 395.099 79.68 393.493 79.68C391.469 79.68 390.127 78.382 389.907 76.16H398.201C398.245 75.852 398.289 75.434 398.289 74.928ZM393.361 71.32C395.231 71.32 396.353 72.574 396.595 74.598H389.929C390.193 72.53 391.403 71.32 393.361 71.32ZM420.858 66.48H419.186V76.732L419.274 79.064H419.252L417.69 76.16L411.64 66.48H409.462V81H411.134V70.748L411.046 68.416H411.068L412.608 71.276L418.68 81H420.858V66.48ZM435.782 68.13V66.48H425.618V81H427.378V74.466H433.934V72.816H427.378V68.13H435.782ZM449.254 66.48H437.374V68.13H442.434V81H444.194V68.13H449.254V66.48ZM473.256 66.48H470.55L467.382 75.324L466.26 78.932H466.216L465.116 75.302L461.926 66.48H459.22V81H460.892V71.87L460.694 68.042H460.716L465.49 81H466.986L471.76 68.042H471.782L471.584 71.87V81H473.256V66.48ZM486.558 79.724C485.942 79.724 485.722 79.46 485.722 78.932V73.52C485.722 70.968 483.896 69.78 481.388 69.78C479.254 69.78 477.516 70.836 476.944 72.464L478.242 73.41C478.836 72.024 479.936 71.32 481.388 71.32C483.038 71.32 483.962 72.288 483.962 73.74V74.356L481.036 74.84C478.198 75.324 476.746 76.622 476.746 78.272C476.746 80.252 478.418 81.22 480.486 81.22C481.894 81.22 483.324 80.626 484.028 79.592C484.226 80.824 484.93 81.22 486.008 81.22C486.558 81.22 487.02 81.11 487.328 81L487.438 79.614C487.174 79.68 486.844 79.724 486.558 79.724ZM480.574 79.68C479.32 79.68 478.572 79.196 478.572 78.272C478.572 77.238 479.562 76.6 481.498 76.248L483.962 75.786V77.304C483.962 78.756 482.334 79.68 480.574 79.68ZM495.191 69.78C493.475 69.78 492.287 70.462 491.671 71.804L491.429 70H489.999V81H491.759V75.06C491.759 72.596 493.343 71.43 494.663 71.43C495.235 71.43 495.719 71.54 496.049 71.716L496.401 70C496.071 69.824 495.565 69.78 495.191 69.78ZM506.768 81H508.902L504.348 74.29L508.638 70H506.438L500.74 75.698V64.94H498.98V81H500.74V77.898L503.072 75.566L506.768 81ZM520.513 74.928C520.513 72.09 518.775 69.78 515.585 69.78C512.263 69.78 510.393 71.936 510.393 75.5C510.393 79.064 512.395 81.22 515.717 81.22C518.093 81.22 519.457 80.318 520.293 78.822L518.819 78.052C518.423 79.108 517.323 79.68 515.717 79.68C513.693 79.68 512.351 78.382 512.131 76.16H520.425C520.469 75.852 520.513 75.434 520.513 74.928ZM515.585 71.32C517.455 71.32 518.577 72.574 518.819 74.598H512.153C512.417 72.53 513.627 71.32 515.585 71.32ZM529.652 78.756C529.146 79.262 528.574 79.57 527.782 79.57C526.814 79.57 526.132 79.042 526.132 77.964V71.518H530.202V70H526.132V66.876L524.372 67.36V70H522.172V71.518H524.372V78.272C524.394 80.406 525.802 81.22 527.43 81.22C528.64 81.22 529.586 80.846 530.268 80.23L529.652 78.756ZM538.165 69.78C536.427 69.78 535.041 70.66 534.403 71.914L534.293 70H532.753V85.62H534.513V79.284C535.195 80.428 536.515 81.22 538.165 81.22C541.223 81.22 543.181 79.086 543.181 75.5C543.181 71.914 541.223 69.78 538.165 69.78ZM537.967 79.68C535.877 79.68 534.513 78.118 534.513 75.632V75.368C534.513 72.882 535.877 71.32 537.967 71.32C540.123 71.32 541.421 72.948 541.421 75.5C541.421 78.052 540.123 79.68 537.967 79.68ZM548.282 64.94H546.522V78.272C546.522 80.274 547.38 81.22 549.162 81.22C549.734 81.22 550.328 81.11 550.79 80.912L551.076 79.218C550.438 79.46 550.064 79.526 549.47 79.526C548.568 79.526 548.282 79.174 548.282 78.052V64.94ZM562.355 79.724C561.739 79.724 561.519 79.46 561.519 78.932V73.52C561.519 70.968 559.693 69.78 557.185 69.78C555.051 69.78 553.313 70.836 552.741 72.464L554.039 73.41C554.633 72.024 555.733 71.32 557.185 71.32C558.835 71.32 559.759 72.288 559.759 73.74V74.356L556.833 74.84C553.995 75.324 552.543 76.622 552.543 78.272C552.543 80.252 554.215 81.22 556.283 81.22C557.691 81.22 559.121 80.626 559.825 79.592C560.023 80.824 560.727 81.22 561.805 81.22C562.355 81.22 562.817 81.11 563.125 81L563.235 79.614C562.971 79.68 562.641 79.724 562.355 79.724ZM556.371 79.68C555.117 79.68 554.369 79.196 554.369 78.272C554.369 77.238 555.359 76.6 557.295 76.248L559.759 75.786V77.304C559.759 78.756 558.131 79.68 556.371 79.68ZM570.438 69.78C567.116 69.78 565.114 71.936 565.114 75.5C565.114 79.064 567.116 81.22 570.438 81.22C572.77 81.22 574.354 80.01 575.102 77.986L573.474 77.414C573.144 78.866 572.11 79.68 570.394 79.68C568.194 79.68 566.874 78.118 566.874 75.5C566.874 72.882 568.194 71.32 570.394 71.32C571.912 71.32 572.858 72.09 573.32 73.498L574.992 72.706C574.178 70.902 572.704 69.78 570.438 69.78ZM587.652 74.928C587.652 72.09 585.914 69.78 582.724 69.78C579.402 69.78 577.532 71.936 577.532 75.5C577.532 79.064 579.534 81.22 582.856 81.22C585.232 81.22 586.596 80.318 587.432 78.822L585.958 78.052C585.562 79.108 584.462 79.68 582.856 79.68C580.832 79.68 579.49 78.382 579.27 76.16H587.564C587.608 75.852 587.652 75.434 587.652 74.928ZM582.724 71.32C584.594 71.32 585.716 72.574 585.958 74.598H579.292C579.556 72.53 580.766 71.32 582.724 71.32Z" fill="white"/>
</svg>
